{"title":"Restitution 2011 DVDRiP AC3 XViD-SIC","uid":6815244,"size":1468345005,"categoryP":"video","categoryS":"movies","magnet":"?xt=urn:btih:f5cfbd027b406e893d0eb96a8fe9c3492d74b081&amp;dn=Restitution+2011+DVDRiP+AC3+XViD-SIC&amp;tr=udp%3A%2F%2Ftracker.openbittorrent.com%3A80&amp;tr=udp%3A%2F%2Fopen.demonii.com%3A1337&amp;tr=udp%3A%2F%2Ftracker.coppersurfer.tk%3A6969&amp;tr=udp%3A%2F%2Fexodus.desync.com%3A6969","seeders":0,"leechers":0,"uploader":"HeroMaster","files":-1,"time":1321181420,"description":"Restitution 2011 DVDRiP AC3 XViD-SIC\n\nGeneral\nComplete name : Restitution.2011.DVDRip.XviD.AC3-SiC.avi\nFormat : AVI\nFormat/Info : Audio Video Interleave\nFile size : 1.37 GiB\nDuration : 1h 40mn\nOverall bit rate : 1 944 Kbps\nVideoID : 0\nFormat : MPEG-4 Visual\nFormat profile : Advanced Simple@L5\nFormat settings, BVOP : Yes\nFormat settings, QPel : No\nFormat settings, GMC : No warppoints\nFormat settings, Matrix : Default (MPEG)\nMuxing mode : Packed bitstream\nCodec ID : XVID\nCodec ID/Hint : XviD\nDuration : 1h 40mn\nBit rate : 1 552 Kbps\nWidth : 720 pixels\nHeight : 384 pixels\nDisplay aspect ratio : 1.875\nFrame rate : 23.976 fps\nColor space : YUV\nChroma subsampling : 4:2:0\nBit depth : 8 bits\nScan type : Progressive\nBits/(Pixel*Frame) : 0.234\nStream size : 1.09 GiB (80%)\nWriting library : XviD 64\nAudio\nID : 1\nFormat : AC-3\nFormat/Info : Audio Coding 3\nMode extension : CM (complete main)\nCodec ID : 2000\nDuration : 1h 40mn\nBit rate mode : Constant\nBit rate : 384 Kbps\nChannel(s) : 6 channels\nChannel positions : Front: L C R, Side: L R, LFE\nSampling rate : 48.0 KHz\nBit depth : 16 bits\nStream size : 277 MiB (20%)\nAlignment : Aligned on interleaves\ninterleave, duration : 64 ms (1.53 video frames)\nInterleave, preload duration : 192\nTitle : Restitution T80 3_2ch 384Kbps DELAY 0ms\n\n &lt;a href=&quot;\nhttp://www.imdb.com/title/tt1452599/&quot; rel=&quot;nofollow&quot; target=&quot;_NEW&quot;&gt;\nhttp://www.imdb.com/title/tt1452599/&lt;/a&gt;\n\n\nPoster:\n\n &lt;a href=&quot;\nhttp://i.imgur.com/SpfyW.jpg&quot; rel=&quot;nofollow&quot; target=&quot;_NEW&quot;&gt;\nhttp://i.imgur.com/SpfyW.jpg&lt;/a&gt;\n\n\nScreenshots:\n\n &lt;a href=&quot;\nhttp://i.imgur.com/0UmHR.jpg&quot; rel=&quot;nofollow&quot; target=&quot;_NEW&quot;&gt;\nhttp://i.imgur.com/0UmHR.jpg&lt;/a&gt;\n\n\nENJOY!","torrent":{"xt":"urn:btih:f5cfbd027b406e893d0eb96a8fe9c3492d74b081","amp;dn":"Restitution+2011+DVDRiP+AC3+XViD-SIC","amp;tr":["udp%3A%2F%2Ftracker.openbittorrent.com%3A80","udp%3A%2F%2Fopen.demonii.com%3A1337","udp%3A%2F%2Ftracker.coppersurfer.tk%3A6969","udp%3A%2F%2Fexodus.desync.com%3A6969"],"infoHash":"f5cfbd027b406e893d0eb96a8fe9c3492d74b081","infoHashBuffer":{"type":"Buffer","data":[245,207,189,2,123,64,110,137,61,14,185,106,143,233,195,73,45,116,176,129]},"announce":[],"urlList":[]}}